<svg width="24" height="24" fill="none" xmlns="http://www.w3.org/2000/svg"><path fill-rule="evenodd" clip-rule="evenodd" d="M21.683 10.326a.605.605 0 00-.039.1.363.363 0 01-.032.081.8.8 0 01-.107.132 2.233 2.233 0 00-.034.035l-.033.04a.35.35 0 01-.048.054.944.944 0 01-.186.11l-.014.006a.38.38 0 00-.04.023.235.235 0 01-.056.031.982.982 0 01-.508.048l-4.25-.705a1 1 0 11.328-1.972l1.643.272C17.064 6.395 14.687 5 12.07 5 9.11 5 6.502 6.718 5.425 9.375a.998.998 0 01-1.302.552.999.999 0 01-.55-1.302C4.956 5.208 8.291 3 12.068 3c3.412 0 6.513 1.87 8.079 4.788l.369-1.973a1 1 0 011.966.37l-.75 4c-.01.051-.03.096-.05.141zm-3.11 4.3a1 1 0 111.853.75C19.042 18.791 15.707 21 11.93 21c-3.412 0-6.513-1.87-8.078-4.788l-.37 1.972a.998.998 0 01-1.167.798.999.999 0 01-.798-1.167l.75-4c.007-.04.024-.074.04-.109a.757.757 0 00.05-.123.54.54 0 01.055-.128.33.33 0 01.054-.06.29.29 0 00.035-.035l.027-.03a.77.77 0 01.154-.153.078.078 0 01.02-.01.09.09 0 00.017-.007.949.949 0 01.316-.137.078.078 0 01.022 0h.018a.98.98 0 01.338-.01l4.25.706a1 1 0 11-.327 1.972l-1.644-.272C6.937 17.605 9.314 19 11.93 19c2.96 0 5.566-1.718 6.643-4.375z" fill="#2E3A59"/></svg>