<svg width="24" height="19" fill="none" xmlns="http://www.w3.org/2000/svg"><path d="M20.4 3.343h-1.536L18.48 2.23A3.382 3.382 0 0017.158.61a3.792 3.792 0 00-2.086-.609H8.928a3.79 3.79 0 00-2.1.632A3.372 3.372 0 005.52 2.284L5.136 3.4H3.6c-.955 0-1.87.352-2.546.979A3.227 3.227 0 000 6.742v8.915c0 .887.38 1.737 1.054 2.364A3.747 3.747 0 003.6 19h16.8a3.74 3.74 0 002.545-.98A3.227 3.227 0 0024 15.658V6.742a3.134 3.134 0 00-.257-1.297 3.333 3.333 0 00-.776-1.103 3.626 3.626 0 00-1.176-.74 3.84 3.84 0 00-1.391-.259zm1.2 12.258c0 .296-.127.58-.352.788-.225.21-.53.326-.848.326H3.6a1.25 1.25 0 01-.849-.326 1.076 1.076 0 01-.351-.788V6.686c0-.295.126-.579.351-.788.225-.209.53-.326.849-.326H6c.262.013.52-.055.737-.191.217-.137.38-.336.463-.567l.648-1.827c.08-.222.234-.414.438-.55.205-.136.45-.209.702-.208h6.144c.251 0 .497.072.701.208.205.136.358.328.439.55l.648 1.827c.077.213.22.399.414.534.192.135.424.213.666.224h2.4c.318 0 .623.117.848.326.225.21.352.493.352.788v8.915zM12 5.571c-.95 0-1.878.262-2.667.752a4.546 4.546 0 00-1.768 2 4.163 4.163 0 00-.273 2.576 4.368 4.368 0 001.314 2.282 4.924 4.924 0 002.457 1.22 5.143 5.143 0 002.774-.253 4.741 4.741 0 002.154-1.642 4.235 4.235 0 00.809-2.477c0-1.182-.506-2.316-1.406-3.152-.9-.836-2.121-1.305-3.394-1.305zm0 6.687c-.475 0-.939-.13-1.334-.375a2.273 2.273 0 01-.884-1 2.081 2.081 0 01-.136-1.288c.093-.433.321-.83.657-1.142a2.463 2.463 0 011.228-.61 2.572 2.572 0 011.387.127 2.37 2.37 0 011.077.821c.264.367.405.798.405 1.238 0 .591-.253 1.158-.703 1.576-.45.418-1.06.653-1.697.653z" fill="#6588DE"/></svg>