<svg width="31" height="32" fill="none" xmlns="http://www.w3.org/2000/svg"><path fill-rule="evenodd" clip-rule="evenodd" d="M15.317 20.488a1.905 1.905 0 01-1.902-1.903c0-1.049.853-1.902 1.902-1.902 1.05 0 1.903.853 1.903 1.902a1.905 1.905 0 01-1.903 1.902zm0-6.342a4.444 4.444 0 00-4.439 4.439 4.444 4.444 0 004.44 4.439 4.444 4.444 0 004.438-4.439 4.444 4.444 0 00-4.439-4.439zm10.146 9.512a1.27 1.27 0 01-1.268 1.268H6.44c-.7 0-1.268-.569-1.268-1.268V13.512a1.27 1.27 0 011.268-1.269h17.756c.7 0 1.268.57 1.268 1.269v10.146zM12.781 7.805c0-.35.285-.635.634-.635h3.805c.348 0 .634.284.634.635v1.902H12.78V7.805zm11.414 1.902H20.39V7.805a3.174 3.174 0 00-3.17-3.171h-3.805a3.174 3.174 0 00-3.171 3.17v1.903H6.439a3.81 3.81 0 00-3.805 3.805v10.146a3.81 3.81 0 003.805 3.805h17.756A3.81 3.81 0 0028 23.658V13.512a3.81 3.81 0 00-3.805-3.805z" fill="#393939"/></svg>