<svg width="20" height="20" fill="none" xmlns="http://www.w3.org/2000/svg"><path fill-rule="evenodd" clip-rule="evenodd" d="M4.666 2.5h10.668c1.195 0 2.167 1.038 2.167 2.314v10.372c0 1.276-.972 2.314-2.167 2.314h-1.167a.833.833 0 110-1.667h1.167c.27 0 .5-.296.5-.647V4.814c0-.35-.23-.647-.5-.647H4.666c-.27 0-.499.296-.499.647v1.02a.833.833 0 11-1.666 0v-1.02c0-1.276.971-2.314 2.165-2.314zM2.508 12.642a.833.833 0 01.712-.94 3.738 3.738 0 013.178 1.066 3.777 3.777 0 01.75 4.251.834.834 0 01-1.51-.705 2.095 2.095 0 00-2.19-2.962.828.828 0 01-.94-.71zm.71-4.244a.833.833 0 10.23 1.65 5 5 0 014.248 1.423 5.032 5.032 0 011.27 4.963.833.833 0 001.6.465 6.698 6.698 0 00-1.692-6.606 6.633 6.633 0 00-5.655-1.895zM2.5 15.833a.833.833 0 111.665-.001.833.833 0 01-1.665.001z" fill="#96999C"/></svg>