<svg width="20" height="20" fill="none" xmlns="http://www.w3.org/2000/svg"><path fill-rule="evenodd" clip-rule="evenodd" d="M9.167 12.5H5.834A.836.836 0 015 11.666c0-.458.375-.833.834-.833h3.333c.458 0 .833.375.833.833a.836.836 0 01-.833.834zm5 0H12.5a.836.836 0 01-.833-.834c0-.458.375-.833.833-.833h1.667c.458 0 .833.375.833.833a.836.836 0 01-.833.834zm2.5.833c0 .46-.373.833-.833.833H4.167a.834.834 0 01-.833-.833V9.166h13.333v4.167zM3.334 6.666c0-.459.373-.833.833-.833h11.667c.46 0 .833.374.833.833V7.5H3.334v-.833zm12.5-2.5H4.167a2.503 2.503 0 00-2.5 2.5v6.667c0 1.378 1.122 2.5 2.5 2.5h11.667c1.378 0 2.5-1.122 2.5-2.5V6.666c0-1.378-1.122-2.5-2.5-2.5z" fill="#96999C"/></svg>