<svg width="16" height="16" fill="none" xmlns="http://www.w3.org/2000/svg"><path fill-rule="evenodd" clip-rule="evenodd" d="M11.052 10.472l-3.686 3.694a.992.992 0 01-1.407.006c-.24-.24-.34-.58-.273-.913l.633-3.053H2.552A1.997 1.997 0 01.72 7.419l2.173-5.074a1.326 1.326 0 011.22-.806h5.994c.733 0 1.333.6 1.333 1.333v6.66c0 .353-.14.694-.387.94zm1.727-7.6c0-.733.6-1.333 1.333-1.333.734 0 1.334.6 1.334 1.333v5.333c0 .734-.6 1.334-1.334 1.334-.733 0-1.333-.6-1.333-1.334V2.872z" fill="#BFBFBF"/></svg>