<svg width="20" height="20" fill="none" xmlns="http://www.w3.org/2000/svg"><path fill-rule="evenodd" clip-rule="evenodd" d="M13.815 13.09l-4.608 4.617a1.24 1.24 0 01-1.758.008c-.3-.3-.425-.725-.342-1.142l.792-3.816H3.19c-1.791 0-3-1.834-2.291-3.484l2.716-6.341A1.658 1.658 0 015.14 1.923h7.492c.917 0 1.667.75 1.667 1.667v8.325c0 .442-.175.867-.484 1.175zm2.159-9.5c0-.917.75-1.667 1.666-1.667.917 0 1.667.75 1.667 1.667v6.667c0 .916-.75 1.666-1.667 1.666-.916 0-1.667-.75-1.667-1.666V3.59z" fill="#1F41F7"/></svg>