<svg width="24" height="24" fill="none" xmlns="http://www.w3.org/2000/svg"><path fill-rule="evenodd" clip-rule="evenodd" d="M12 5.5c2.618 0 4.972 1.051 6.668 2.353.85.652 1.547 1.376 2.035 2.08.48.692.797 1.418.797 2.067 0 .649-.317 1.375-.797 2.066-.488.705-1.185 1.429-2.035 2.08C16.972 17.45 14.618 18.5 12 18.5c-2.618 0-4.972-1.051-6.668-2.353-.85-.652-1.547-1.376-2.036-2.08-.48-.692-.796-1.418-.796-2.067 0-.649.317-1.375.796-2.066.49-.705 1.186-1.429 2.036-2.08C7.028 6.55 9.382 5.5 12 5.5zm0 2.75a3.75 3.75 0 100 7.5 3.75 3.75 0 000-7.5zm0 1.5a2.25 2.25 0 110 4.5 2.25 2.25 0 010-4.5z" fill="#10182B"/></svg>