<svg width="24" height="24" fill="none" xmlns="http://www.w3.org/2000/svg"><path fill-rule="evenodd" clip-rule="evenodd" d="M11 19a1 1 0 110-2 1 1 0 010 2zm10-2h-7.185A2.995 2.995 0 0011 15a2.995 2.995 0 00-2.815 2H3a1 1 0 100 2h5.185A2.995 2.995 0 0011 21a2.995 2.995 0 002.815-2H21a1 1 0 100-2zm-2-4a1 1 0 110-2 1 1 0 010 2zm0-4a2.995 2.995 0 00-2.815 2H3a1 1 0 100 2h13.185A2.995 2.995 0 0019 15c1.654 0 3-1.346 3-3s-1.346-3-3-3zM7 5a1 1 0 110 2 1 1 0 010-2zM3 7h1.185A2.995 2.995 0 007 9a2.995 2.995 0 002.815-2H21a1 1 0 100-2H9.815A2.995 2.995 0 007 3a2.995 2.995 0 00-2.815 2H3a1 1 0 100 2z" fill="#1F41F7"/></svg>