<svg width="14" height="20" fill="none" xmlns="http://www.w3.org/2000/svg"><path d="M7 12.727c.928 0 1.819-.383 2.475-1.065A3.71 3.71 0 0010.5 9.091V3.636a3.71 3.71 0 00-1.025-2.57A3.435 3.435 0 007 0c-.928 0-1.819.383-2.475 1.065A3.71 3.71 0 003.5 3.636v5.455c0 .964.369 1.89 1.025 2.571A3.435 3.435 0 007 12.727zm-1.75-9.09c0-.483.184-.945.513-1.286A1.717 1.717 0 017 1.818c.464 0 .91.192 1.237.533.329.34.513.803.513 1.285v5.455c0 .482-.184.945-.513 1.286A1.72 1.72 0 017 10.909c-.464 0-.91-.192-1.237-.532A1.855 1.855 0 015.25 9.09V3.636zM14 9.09a.927.927 0 00-.256-.643.859.859 0 00-.619-.266.859.859 0 00-.619.266.927.927 0 00-.256.643 5.564 5.564 0 01-1.538 3.857A5.152 5.152 0 017 14.546a5.152 5.152 0 01-3.712-1.598A5.565 5.565 0 011.75 9.09a.927.927 0 00-.256-.643.859.859 0 00-.619-.266.859.859 0 00-.619.266A.927.927 0 000 9.09a7.438 7.438 0 001.752 4.806A6.923 6.923 0 006.125 16.3v1.882h-1.75a.859.859 0 00-.619.266.927.927 0 00-.256.643.93.93 0 00.256.643.86.86 0 00.619.266h5.25a.859.859 0 00.619-.266.927.927 0 00.256-.643.927.927 0 00-.256-.643.859.859 0 00-.619-.266h-1.75V16.3a6.923 6.923 0 004.373-2.403A7.437 7.437 0 0014 9.091z" fill="#2E3A59"/></svg>