<svg width="24" height="24" fill="none" xmlns="http://www.w3.org/2000/svg"><path fill-rule="evenodd" clip-rule="evenodd" d="M7.22 6c-.864 0-1.674.334-2.28.941a3.241 3.241 0 00.001 4.573L12 18.585l7.06-7.071a3.24 3.24 0 000-4.573c-1.212-1.215-3.348-1.213-4.56 0l-1.792 1.795a1.028 1.028 0 01-1.416 0L9.5 6.94A3.2 3.2 0 007.22 6M12 21a.994.994 0 01-.707-.294l-7.768-7.78a5.245 5.245 0 010-7.399A5.19 5.19 0 017.22 4c1.399 0 2.712.543 3.695 1.527L12 6.614l1.085-1.086A5.187 5.187 0 0116.781 4c1.398 0 2.711.543 3.694 1.527a5.244 5.244 0 01.001 7.399l-7.768 7.781A1 1 0 0112 21" fill="#2E3A59"/></svg>