<svg width="24" height="56" fill="none" xmlns="http://www.w3.org/2000/svg"><path fill-rule="evenodd" clip-rule="evenodd" d="M6.5 34.5a1.5 1.5 0 110 3 1.5 1.5 0 010-3zm11 0a1.5 1.5 0 110 3 1.5 1.5 0 010-3zm-14-15.75a.75.75 0 01.6.3l.055.085 1.18 2.115h13.813c1.344 0 2.168 1.442 1.536 2.588l-.073.122-1.103 1.679-.028.035-.579.685a9.29 9.29 0 01-6.366 3.269c-.884.07-1.771.063-2.653-.021l-.529-.06-.752-.098-.054.064-1.98 2.111.976.112c2.715.31 5.454.336 8.173.077l.74-.077 2.459-.281a.75.75 0 01.27 1.472l-.1.018-2.458.281a40.745 40.745 0 01-8.485.08l-.769-.08-2.458-.28a.75.75 0 01-.529-1.177l.067-.082L7.15 28.81l-2.926-6.472L3.06 20.25H2a.75.75 0 01-.102-1.493L2 18.75h1.5z" fill="#1F41F7"/></svg>