<svg width="22" height="23" fill="none" xmlns="http://www.w3.org/2000/svg"><g clip-path="url(#clip0)"><path d="M11.216 22.284h-.218a76.416 76.416 0 01-4.868-.135c-1.42-.086-2.717-.577-3.75-1.42-.997-.812-1.678-1.911-2.023-3.265-.3-1.18-.317-2.336-.332-3.456-.011-.803-.023-1.755-.025-2.722.002-.972.014-1.924.025-2.727.015-1.12.031-2.277.332-3.456C.702 3.75 1.383 2.65 2.38 1.837 3.413.995 4.71.504 6.13.417a76.65 76.65 0 014.872-.133c1.725-.004 3.317.04 4.867.134 1.42.086 2.718.577 3.75 1.42.997.812 1.678 1.911 2.023 3.265.301 1.18.317 2.337.332 3.456.011.803.023 1.755.025 2.723v.004c-.002.967-.014 1.919-.025 2.722-.015 1.12-.03 2.277-.332 3.456-.345 1.354-1.026 2.453-2.023 3.266-1.032.842-2.33 1.333-3.75 1.42-1.484.09-3.008.134-4.652.134zm-.218-1.72a74.956 74.956 0 004.767-.13c1.074-.066 2.005-.414 2.768-1.036.706-.576 1.191-1.37 1.444-2.36.25-.98.265-2.034.279-3.053.01-.798.022-1.743.024-2.701-.002-.96-.013-1.904-.024-2.702-.014-1.019-.029-2.072-.28-3.054-.252-.99-.737-1.783-1.443-2.359-.763-.622-1.694-.97-2.768-1.036A75.091 75.091 0 0011 2.003a74.89 74.89 0 00-4.766.13c-1.075.066-2.006.414-2.77 1.036-.704.576-1.19 1.37-1.443 2.36-.25.98-.265 2.034-.279 3.053-.01.799-.022 1.744-.024 2.704.002.955.014 1.9.024 2.699.014 1.019.029 2.072.28 3.054.252.99.738 1.783 1.443 2.359.763.622 1.694.97 2.768 1.035a74.69 74.69 0 004.764.131zm-.041-3.91a5.377 5.377 0 01-5.372-5.37 5.377 5.377 0 015.372-5.372 5.377 5.377 0 015.37 5.372 5.377 5.377 0 01-5.37 5.37zm0-9.023a3.657 3.657 0 00-3.653 3.652 3.657 3.657 0 003.652 3.653 3.657 3.657 0 003.653-3.652 3.657 3.657 0 00-3.652-3.653zm5.972-3.437a1.29 1.29 0 100 2.578 1.29 1.29 0 000-2.578z" fill="#4B4B4B"/></g><defs><clipPath id="clip0"><path fill="#fff" transform="translate(0 .283)" d="M0 0h22v22H0z"/></clipPath></defs></svg>