<svg width="20" height="20" fill="none" xmlns="http://www.w3.org/2000/svg"><path fill-rule="evenodd" clip-rule="evenodd" d="M6.185 6.91l4.608-4.617a1.24 1.24 0 011.759-.008c.3.3.425.725.341 1.142l-.792 3.816h4.709c1.792 0 3 1.834 2.292 3.484l-2.717 6.341a1.658 1.658 0 01-1.525 1.009H7.368c-.917 0-1.667-.75-1.667-1.667V8.085c0-.442.175-.867.484-1.175zm-2.159 9.5c0 .917-.75 1.667-1.666 1.667-.917 0-1.667-.75-1.667-1.667V9.743c0-.916.75-1.666 1.667-1.666.916 0 1.666.75 1.666 1.666v6.667z" fill="#1F41F7"/></svg>