<svg width="16" height="16" fill="none" xmlns="http://www.w3.org/2000/svg"><path fill-rule="evenodd" clip-rule="evenodd" d="M4.948 5.528l3.686-3.693a.992.992 0 011.407-.007c.24.24.34.58.273.913l-.633 3.054h3.767c1.433 0 2.4 1.466 1.833 2.786l-2.173 5.074a1.326 1.326 0 01-1.22.806H5.894c-.733 0-1.333-.6-1.333-1.333v-6.66c0-.353.14-.693.387-.94zm-1.727 7.6c0 .733-.6 1.333-1.333 1.333-.734 0-1.334-.6-1.334-1.333V7.795c0-.734.6-1.334 1.334-1.334.733 0 1.333.6 1.333 1.334v5.333z" fill="#1F41F7"/></svg>