<svg width="20" height="20" fill="none" xmlns="http://www.w3.org/2000/svg"><path fill-rule="evenodd" clip-rule="evenodd" d="M14.167 3.333h1.667c.458 0 .833.375.833.834v11.666a.836.836 0 01-.834.834h-1.666a.836.836 0 01-.833-.834c0-.458.375-.833.833-.833H15V5h-.833a.836.836 0 01-.833-.833c0-.458.375-.833.833-.833zM8.667 6c.37-.275.89-.2 1.166.167l2.5 3.334a.832.832 0 01.015.979l-2.345 3.333a.832.832 0 01-1.16.202.834.834 0 01-.203-1.161l1.432-2.035a.18.18 0 00-.033.007.123.123 0 01-.039.008H3.333a.834.834 0 010-1.667H10l-1.5-2A.833.833 0 018.667 6z" fill="#96999C"/></svg>