<svg width="18" height="20" fill="none" xmlns="http://www.w3.org/2000/svg"><path d="M16.504 7.316L3.905.314a2.462 2.462 0 00-1.608-.28 2.597 2.597 0 00-1.46.798c-.402.426-.675.98-.783 1.586a3.31 3.31 0 00.18 1.797l2.16 5.372a1.163 1.163 0 010 .82L.233 15.78a3.299 3.299 0 00.201 2.854c.245.42.58.764.976 1.003.396.239.838.364 1.288.364a2.597 2.597 0 001.215-.32l12.6-7.002c.446-.25.822-.633 1.085-1.106A3.254 3.254 0 0018 9.997c0-.556-.139-1.101-.401-1.574a2.83 2.83 0 00-1.086-1.107h-.009zm-.8 3.571l-12.6 7.002a.82.82 0 01-.532.086.87.87 0 01-.482-.267 1.036 1.036 0 01-.258-.524c-.036-.2-.016-.408.057-.595l2.151-5.371c.028-.072.052-.146.072-.22h6.2a.856.856 0 00.637-.294 1.06 1.06 0 00.264-.707c0-.265-.095-.52-.264-.707a.856.856 0 00-.636-.293h-6.2a2.147 2.147 0 00-.073-.22L1.89 3.405a1.104 1.104 0 01-.058-.594c.036-.2.126-.383.258-.525a.87.87 0 01.482-.267.82.82 0 01.532.086l12.6 7.002a.945.945 0 01.357.368 1.094 1.094 0 010 1.044.946.946 0 01-.357.368z" fill="#B4B4B4"/></svg>