<svg width="24" height="24" fill="none" xmlns="http://www.w3.org/2000/svg"><path fill-rule="evenodd" clip-rule="evenodd" d="M13 3a1 1 0 10-2 0v.75h-.557A4.214 4.214 0 006.237 7.7l-.22 3.534a7.377 7.377 0 01-1.308 3.754 1.617 1.617 0 001.134 2.529l3.407.408V19a2.75 2.75 0 105.5 0v-1.075l3.407-.409a1.617 1.617 0 001.135-2.528 7.376 7.376 0 01-1.308-3.754l-.22-3.533a4.214 4.214 0 00-4.206-3.951H13V3zm-2.25 16a1.25 1.25 0 102.5 0v-.75h-2.5V19z" fill="#393939"/><circle r="3" transform="matrix(1 0 0 -1 17 5)" fill="#FF1F1F"/></svg>