<svg width="14" height="12" fill="none" xmlns="http://www.w3.org/2000/svg"><path fill-rule="evenodd" clip-rule="evenodd" d="M5.08 8.226a.483.483 0 01-.34-.826l1.599-1.6L4.8 4.207a.484.484 0 01.696-.673l1.87 1.936a.484.484 0 01-.007.678L5.423 8.084a.483.483 0 01-.342.142z" fill="#96999C"/><path fill-rule="evenodd" clip-rule="evenodd" d="M7.468 8.226a.483.483 0 01-.342-.826l1.599-1.6-1.539-1.593a.484.484 0 01.697-.673L9.75 5.47a.484.484 0 01-.006.678L7.81 8.084a.483.483 0 01-.342.142z" fill="#96999C"/></svg>