<svg width="20" height="20" fill="none" xmlns="http://www.w3.org/2000/svg"><path fill-rule="evenodd" clip-rule="evenodd" d="M3.669 9.685c.93.32 1.67 1.098 1.98 2.085l.034.1c.355 1.046.21 2.173-.384 3.018-.108.153-.084.337.03.423l1.727 1.312a.21.21 0 00.156.041.227.227 0 00.152-.099l.192-.273a3.163 3.163 0 012.476-1.345 3.15 3.15 0 012.695 1.366l.098.142c.05.07.11.094.152.1a.193.193 0 00.157-.041l1.717-1.296c.12-.09.147-.283.058-.412l-.217-.312a3.307 3.307 0 01-.443-2.8 3.262 3.262 0 012.077-2.178l.167-.057c.134-.044.207-.21.16-.364l-.657-2.1a.265.265 0 00-.129-.161.196.196 0 00-.156-.013l-.283.094a3.12 3.12 0 01-2.86-.47l-.09-.067a3.159 3.159 0 01-1.24-2.53l.002-.233c0-.11-.053-.18-.085-.211a.212.212 0 00-.152-.068l-2.122-.002c-.13 0-.236.124-.237.277l-.001.202A3.272 3.272 0 017.375 6.39l-.108.082a3.264 3.264 0 01-3.029.497.135.135 0 00-.11.008.198.198 0 00-.1.123l-.68 2.163a.298.298 0 00.184.375l.137.046zm3.509 8.649a1.86 1.86 0 01-1.13-.384l-1.727-1.311c-.825-.625-1.007-1.828-.407-2.68.312-.442.376-1.01.192-1.548l-.045-.14c-.153-.485-.501-.862-.932-1.009h-.001l-.136-.048a1.954 1.954 0 01-1.234-2.45l.68-2.162c.154-.49.487-.884.937-1.112.44-.221.937-.256 1.402-.096.5.17 1.054.077 1.481-.248l.108-.082c.38-.29.609-.76.61-1.258l.001-.2c.004-1.07.859-1.939 1.903-1.939h.003l2.123.002c.501.001.974.2 1.331.559.37.37.571.866.57 1.396l-.002.232c-.002.472.214.918.578 1.191l.09.067c.382.288.88.37 1.327.22l.283-.094c.48-.16.992-.12 1.443.11.463.237.804.644.961 1.149l.656 2.1c.317 1.015-.232 2.11-1.22 2.441l-.168.056a1.6 1.6 0 00-1.009 1.072c-.138.467-.058.982.216 1.377l.217.312c.595.86.405 2.067-.424 2.69l-1.717 1.297a1.859 1.859 0 01-1.426.357 1.885 1.885 0 01-1.257-.797l-.099-.144c-.291-.42-.758-.675-1.247-.647-.49.013-.913.246-1.19.639l-.193.273a1.89 1.89 0 01-1.548.809zM10 8.75a1.251 1.251 0 000 2.5 1.251 1.251 0 000-2.5m0 4.167A2.92 2.92 0 017.083 10 2.92 2.92 0 0110 7.084 2.92 2.92 0 0112.916 10 2.92 2.92 0 0110 12.917" fill="#96999C"/></svg>