<svg width="16" height="16" fill="none" xmlns="http://www.w3.org/2000/svg"><path fill-rule="evenodd" clip-rule="evenodd" d="M8.576 1.997a.667.667 0 00-1.153 0l-1.81 3.119a.833.833 0 01-.596.405l-3.39.512A.667.667 0 001.3 7.206l2.526 2.093c.233.194.343.5.287.797l-.661 3.47a.667.667 0 00.965.715L7.611 12.6a.833.833 0 01.777 0l3.193 1.681a.667.667 0 00.965-.715l-.66-3.47a.833.833 0 01.286-.797l2.526-2.093a.667.667 0 00-.325-1.173l-3.391-.512a.833.833 0 01-.596-.405l-1.81-3.119z" fill="#1F41F7"/></svg>