<svg width="16" height="20" fill="none" xmlns="http://www.w3.org/2000/svg"><path d="M14.223 10.585l-5.756 6.302c-.754.732-1.737 1.123-2.746 1.09-1.009-.032-1.968-.485-2.682-1.265-.714-.78-1.128-1.83-1.158-2.932a4.573 4.573 0 01.998-3.002l7.451-8.144a2.289 2.289 0 011.649-.719 2.29 2.29 0 011.648.72c.433.48.676 1.127.676 1.801 0 .675-.243 1.322-.676 1.802l-6.426 7.014a.718.718 0 01-.225.178.664.664 0 01-.781-.137.78.78 0 01-.163-.246.838.838 0 01.125-.854l4.778-5.212c.176-.191.274-.451.274-.723 0-.27-.098-.53-.274-.722a.897.897 0 00-.66-.3.897.897 0 00-.662.3l-4.778 5.232a2.8 2.8 0 00-.558.908 3.016 3.016 0 000 2.145c.129.34.319.648.558.907a2.512 2.512 0 001.811.792 2.51 2.51 0 001.812-.792l6.417-7.024c.74-.868 1.143-2.017 1.124-3.204-.019-1.187-.459-2.319-1.227-3.158C14.004.502 12.97.022 11.882 0c-1.084-.02-2.135.42-2.929 1.23L1.5 9.373C.496 10.59-.041 12.184.002 13.82c.044 1.638.664 3.195 1.731 4.346 1.067 1.15 2.5 1.807 3.999 1.832 1.5.025 2.95-.583 4.048-1.697l5.766-6.292c.087-.095.155-.207.202-.331a1.105 1.105 0 000-.783 1.032 1.032 0 00-.202-.331.931.931 0 00-.304-.222.866.866 0 00-.715 0 .931.931 0 00-.304.222v.02z" fill="#2E3A59"/></svg>