<svg width="24" height="25" fill="none" xmlns="http://www.w3.org/2000/svg"><path fill-rule="evenodd" clip-rule="evenodd" d="M19.016 6.938v.002-.002zM8.513 18.28c.024 0 .05 0 .074.003 5.695-.037 9.094-4.388 9.094-8.594 0-.382.196-.63.37-.848.158-.2.403-.508.62-.952-.792-.008-1.5-.36-1.912-.842a2.453 2.453 0 00-1.718-.763 2.483 2.483 0 00-1.79.685 2.568 2.568 0 00-.725 2.428l.26 1.139-1.165.081c-3.016.226-5.106-1.064-6.541-2.4.006 2.02.677 4.714 3.727 6.453l.958.546-.637.9c-.663.94-1.661 1.538-2.677 1.921a8.85 8.85 0 002.049.242h.012zm0 2.003a1.07 1.07 0 01-.08-.003 10.915 10.915 0 01-4.655-1.083 1.376 1.376 0 01-.763-1.442 1.394 1.394 0 011.158-1.181c1.045-.172 1.912-.479 2.54-.887-3.877-2.9-3.775-7.24-3.524-9.077.074-.538.457-.987.975-1.144.526-.16 1.07 0 1.43.409 1.537 1.74 3.072 2.616 4.872 2.749a4.57 4.57 0 011.409-3.106 4.46 4.46 0 013.228-1.233 4.459 4.459 0 013.147 1.43c.084.096.398.27.777.1a1.393 1.393 0 011.474.195c.41.34.586.878.458 1.4a6.667 6.667 0 01-1.283 2.6c-.168 5.106-4.316 10.273-11.163 10.273z" fill="#4B4B4B"/></svg>